<?xml version="1.0" encoding="UTF-8" standalone="no"?>
<svg width="94px" height="94px" viewBox="0 0 94 94" version="1.1" xmlns="http://www.w3.org/2000/svg" xmlns:xlink="http://www.w3.org/1999/xlink">
    <!-- Generator: Sketch 3.6 (26304) - http://www.bohemiancoding.com/sketch -->
    <title>Donut</title>
    <desc>Created with Sketch.</desc>
    <defs></defs>
    <g id="Page-1" stroke="none" stroke-width="1" fill="none" fill-rule="evenodd">
        <g id="food-icon-freebies" transform="translate(-691.000000, -534.000000)">
            <g id="Donut" transform="translate(693.000000, 536.000000)">
                <path d="M45,90 C69.8528137,90 90,69.8528137 90,45 C90,20.1471863 69.8528137,0 45,0 C20.1471863,0 0,20.1471863 0,45 C0,69.8528137 20.1471863,90 45,90 Z M45.4090909,59.7272727 C53.3168044,59.7272727 59.7272727,53.3168044 59.7272727,45.4090909 C59.7272727,37.5013774 53.3168044,31.0909091 45.4090909,31.0909091 C37.5013774,31.0909091 31.0909091,37.5013774 31.0909091,45.4090909 C31.0909091,53.3168044 37.5013774,59.7272727 45.4090909,59.7272727 Z" id="Oval-30" stroke="#FC5314" stroke-width="3" fill="#FFFFFF"></path>
                <path d="M15,29.3013173 C15,29.3013173 18.5560414,26.0000002 22.2144316,26" id="Path-35" stroke="#709AE2" stroke-width="3" stroke-linecap="round"></path>
                <path d="M56.6486211,21.1083915 C56.6486211,21.1083915 51.8024896,21.3515678 49,19" id="Path-35-Copy" stroke="#709AE2" stroke-width="3" stroke-linecap="round"></path>
                <path d="M74,26 C74,26 75.8076738,30.5029369 74.4966241,33.9183384" id="Path-35-Copy-2" stroke="#709AE2" stroke-width="3" stroke-linecap="round"></path>
                <circle id="Oval-32" fill="#709AE2" cx="32.5" cy="11.5" r="2.5"></circle>
                <path d="M0,45.9346927 C0,45.9346927 6.56210321,41.9782907 9.84315482,42.0000898 C13.0095751,42.0211272 17.5921873,45.8517158 21.6908019,46.7634984 C26.7561539,47.8903426 31.0822609,46.1412004 31.0822609,46.1412004" id="Path-38" stroke="#FC5314" stroke-width="3"></path>
                <path d="M90.0822609,44.9346927 C90.0822609,44.9346927 83.5201577,40.9782907 80.239106,41.0000898 C77.0726858,41.0211272 72.4900735,44.8517158 68.391459,45.7634984 C63.326107,46.8903426 59,45.1412004 59,45.1412004" id="Path-38-Copy" stroke="#FC5314" stroke-width="3"></path>
            </g>
        </g>
    </g>
</svg>